# xmcd CD database file
#
# Track frame offsets:
#	150
#	16306
#	32658
#	53218
#	66255
#	81367
#	96241
#	111179
#	130409
#	150342
#	168561
#
# Disc length: 2522 seconds
#
# Revision: 0
# Processed by: cddbd v1.5.2PL0 Copyright (c) Steve Scherf et al.
# Submitted via: CDex 1.70beta2
#
DISCID=8d09d80b
DTITLE=Connelly, Bill - Cdn. ON - OVM - Stories Painted In Music
DYEAR=1900
DGENRE=Country
TTITLE0=Girl of My Dreams
TTITLE1=Mrs. McConakie
TTITLE2=Saturday Waltz
TTITLE3=Nasty Memory
TTITLE4=Sidewalk Sam
TTITLE5=Tambourine Lady
TTITLE6=The Soldier
TTITLE7=Reincarnated Newborn
TTITLE8=Cecil the Storyteller
TTITLE9=Who You Really Are
TTITLE10=Lily Chickasay
EXTD=
EXTT0=
EXTT1=
EXTT2=
EXTT3=
EXTT4=
EXTT5=
EXTT6=
EXTT7=
EXTT8=
EXTT9=
EXTT10=
PLAYORDER=
